<svg width="197" height="26" viewBox="0 0 197 26" fill="none" xmlns="http://www.w3.org/2000/svg">
<g clip-path="url(#clip0_4531_7676)">
<path d="M1.66 20V5.86H6.76C7.81333 5.86 8.72 6.02667 9.48 6.36C10.2533 6.69333 10.8467 7.21333 11.26 7.92C11.6733 8.61333 11.88 9.51333 11.88 10.62C11.88 11.6867 11.64 12.58 11.16 13.3C10.6933 14.02 10.0533 14.5667 9.24 14.94C8.42667 15.3 7.5 15.48 6.46 15.48H3.78V20H1.66ZM3.78 13.56H6.38C7.39333 13.56 8.20667 13.3267 8.82 12.86C9.43333 12.38 9.74 11.6133 9.74 10.56C9.74 9.64 9.48667 8.95333 8.98 8.5C8.47333 8.03333 7.70667 7.8 6.68 7.8H3.78V13.56ZM13.0139 20V9.46H14.9539L15.0539 10.98C15.3206 10.5667 15.6272 10.24 15.9739 10C16.3206 9.76 16.7006 9.58667 17.1139 9.48C17.5272 9.37333 17.9606 9.32 18.4139 9.32C18.5339 9.32 18.6472 9.32 18.7539 9.32C18.8606 9.32 18.9606 9.32 19.0539 9.32V11.3H18.4139C17.6539 11.3 17.0206 11.4533 16.5139 11.76C16.0206 12.0667 15.6539 12.4933 15.4139 13.04C15.1872 13.5867 15.0739 14.2133 15.0739 14.92V20H13.0139ZM24.1163 20.12C23.0229 20.12 22.0963 19.9 21.3363 19.46C20.5763 19.0067 19.9963 18.3733 19.5963 17.56C19.2096 16.7467 19.0163 15.8067 19.0163 14.74C19.0163 13.66 19.2163 12.72 19.6163 11.92C20.0163 11.1067 20.5963 10.4733 21.3563 10.02C22.1163 9.55333 23.0429 9.32 24.1363 9.32C25.2296 9.32 26.1563 9.55333 26.9163 10.02C27.6763 10.4733 28.2496 11.1067 28.6363 11.92C29.0229 12.7333 29.2163 13.68 29.2163 14.76C29.2163 15.8133 29.0163 16.7467 28.6163 17.56C28.2296 18.3733 27.6563 19.0067 26.8963 19.46C26.1496 19.9 25.2229 20.12 24.1163 20.12ZM24.1163 18.28C24.8363 18.28 25.4163 18.12 25.8563 17.8C26.3096 17.48 26.6429 17.0533 26.8563 16.52C27.0696 15.9733 27.1763 15.38 27.1763 14.74C27.1763 14.1 27.0696 13.5133 26.8563 12.98C26.6429 12.4467 26.3096 12.02 25.8563 11.7C25.4163 11.3667 24.8363 11.2 24.1163 11.2C23.4096 11.2 22.8296 11.3667 22.3763 11.7C21.9229 12.02 21.5896 12.4467 21.3763 12.98C21.1763 13.5133 21.0763 14.1 21.0763 14.74C21.0763 15.3933 21.1763 15.9867 21.3763 16.52C21.5896 17.0533 21.9229 17.48 22.3763 17.8C22.8296 18.12 23.4096 18.28 24.1163 18.28ZM30.3303 23.84V9.46H32.2903L32.3903 10.96C32.7636 10.4133 33.2503 10.0067 33.8503 9.74C34.4503 9.46 35.1036 9.32 35.8103 9.32C36.8636 9.32 37.7303 9.56 38.4103 10.04C39.0903 10.5067 39.597 11.1533 39.9303 11.98C40.2636 12.7933 40.4303 13.7067 40.4303 14.72C40.4303 15.76 40.257 16.6867 39.9103 17.5C39.577 18.3133 39.057 18.9533 38.3503 19.42C37.657 19.8867 36.777 20.12 35.7103 20.12C35.2036 20.12 34.737 20.0667 34.3103 19.96C33.897 19.8533 33.5303 19.7 33.2103 19.5C32.9036 19.2867 32.6303 19.04 32.3903 18.76V23.84H30.3303ZM35.4503 18.28C36.1703 18.28 36.7436 18.12 37.1703 17.8C37.597 17.4667 37.9036 17.0333 38.0903 16.5C38.277 15.9667 38.3703 15.3867 38.3703 14.76C38.3703 14.1067 38.2703 13.5133 38.0703 12.98C37.8836 12.4333 37.5703 12 37.1303 11.68C36.7036 11.3467 36.1303 11.18 35.4103 11.18C34.757 11.18 34.2036 11.3467 33.7503 11.68C33.297 12 32.9503 12.4333 32.7103 12.98C32.4836 13.5267 32.3703 14.12 32.3703 14.76C32.3703 15.4133 32.477 16.0133 32.6903 16.56C32.917 17.0933 33.257 17.5133 33.7103 17.82C34.177 18.1267 34.757 18.28 35.4503 18.28ZM46.0769 20.12C44.5969 20.12 43.4635 19.7333 42.6769 18.96C41.9035 18.1733 41.5169 16.98 41.5169 15.38V9.46H43.5769V15.26C43.5769 15.8867 43.6635 16.4267 43.8369 16.88C44.0235 17.3333 44.3035 17.68 44.6769 17.92C45.0502 18.16 45.5235 18.28 46.0969 18.28C46.6969 18.28 47.1769 18.16 47.5369 17.92C47.9102 17.6667 48.1769 17.3133 48.3369 16.86C48.5102 16.4067 48.5969 15.8733 48.5969 15.26V9.46H50.6569V15.38C50.6569 17.0067 50.2569 18.2067 49.4569 18.98C48.6702 19.74 47.5435 20.12 46.0769 20.12ZM52.1389 20V5.86H54.1989V20H52.1389ZM59.6883 20.12C59.1949 20.12 58.7016 20.0733 58.2083 19.98C57.7149 19.8867 57.2549 19.72 56.8283 19.48C56.4016 19.24 56.0416 18.92 55.7483 18.52C55.4549 18.1067 55.2683 17.6 55.1883 17H57.2883C57.3949 17.32 57.5816 17.58 57.8483 17.78C58.1283 17.98 58.4349 18.1267 58.7683 18.22C59.1149 18.3133 59.4549 18.36 59.7883 18.36C59.9883 18.36 60.2083 18.3467 60.4483 18.32C60.7016 18.2933 60.9416 18.2333 61.1683 18.14C61.3949 18.0467 61.5816 17.9133 61.7283 17.74C61.8749 17.5533 61.9483 17.3067 61.9483 17C61.9483 16.76 61.8816 16.56 61.7483 16.4C61.6283 16.24 61.4549 16.1133 61.2283 16.02C61.0149 15.9133 60.7549 15.8333 60.4483 15.78C59.8483 15.6467 59.2016 15.52 58.5083 15.4C57.8283 15.2667 57.2283 15.04 56.7083 14.72C56.5216 14.6 56.3549 14.4667 56.2083 14.32C56.0616 14.16 55.9349 13.98 55.8283 13.78C55.7216 13.58 55.6416 13.3667 55.5883 13.14C55.5349 12.9133 55.5083 12.6667 55.5083 12.4C55.5083 11.8533 55.6149 11.3867 55.8283 11C56.0549 10.6133 56.3616 10.3 56.7483 10.06C57.1349 9.80667 57.5749 9.62 58.0683 9.5C58.5616 9.38 59.0816 9.32 59.6283 9.32C60.3349 9.32 60.9749 9.43333 61.5483 9.66C62.1216 9.88667 62.5949 10.22 62.9683 10.66C63.3416 11.1 63.5616 11.6533 63.6283 12.32H61.6883C61.6083 11.96 61.3749 11.6733 60.9883 11.46C60.6149 11.2333 60.1416 11.12 59.5683 11.12C59.3683 11.12 59.1483 11.1333 58.9083 11.16C58.6816 11.1867 58.4616 11.2467 58.2483 11.34C58.0349 11.4333 57.8616 11.5667 57.7283 11.74C57.5949 11.9 57.5283 12.1133 57.5283 12.38C57.5283 12.6333 57.5883 12.8467 57.7083 13.02C57.8416 13.1933 58.0283 13.3333 58.2683 13.44C58.5216 13.5467 58.8083 13.6333 59.1283 13.7C59.5816 13.8067 60.0683 13.9067 60.5883 14C61.1216 14.0933 61.5549 14.1933 61.8883 14.3C62.3283 14.42 62.7016 14.5933 63.0083 14.82C63.3283 15.0467 63.5683 15.3333 63.7283 15.68C63.9016 16.0267 63.9883 16.4467 63.9883 16.94C63.9883 17.58 63.8616 18.1067 63.6083 18.52C63.3549 18.92 63.0149 19.24 62.5883 19.48C62.1749 19.72 61.7083 19.8867 61.1883 19.98C60.6816 20.0733 60.1816 20.12 59.6883 20.12ZM69.5836 20.12C68.4769 20.12 67.5503 19.8933 66.8036 19.44C66.0569 18.9867 65.4903 18.36 65.1036 17.56C64.7303 16.7467 64.5436 15.8133 64.5436 14.76C64.5436 13.6933 64.7369 12.7533 65.1236 11.94C65.5236 11.1267 66.0969 10.4867 66.8436 10.02C67.6036 9.55333 68.5169 9.32 69.5836 9.32C70.3969 9.32 71.1036 9.47333 71.7036 9.78C72.3036 10.0733 72.7969 10.4733 73.1836 10.98C73.5836 11.4867 73.8769 12.0533 74.0636 12.68C74.2503 13.2933 74.3303 13.9333 74.3036 14.6C74.3036 14.7467 74.2969 14.8867 74.2836 15.02C74.2703 15.1533 74.2569 15.2933 74.2436 15.44H66.6236C66.6636 15.9733 66.7969 16.46 67.0236 16.9C67.2636 17.34 67.5969 17.6933 68.0236 17.96C68.4503 18.2133 68.9769 18.34 69.6036 18.34C69.9503 18.34 70.2836 18.3 70.6036 18.22C70.9369 18.1267 71.2303 17.9867 71.4836 17.8C71.7503 17.6 71.9369 17.3467 72.0436 17.04H74.1236C73.9503 17.7467 73.6369 18.3333 73.1836 18.8C72.7436 19.2533 72.2036 19.5867 71.5636 19.8C70.9369 20.0133 70.2769 20.12 69.5836 20.12ZM66.6636 13.8H72.2636C72.2503 13.28 72.1303 12.82 71.9036 12.42C71.6769 12.0067 71.3636 11.6867 70.9636 11.46C70.5636 11.22 70.0836 11.1 69.5236 11.1C68.9103 11.1 68.3969 11.2267 67.9836 11.48C67.5836 11.7333 67.2703 12.0667 67.0436 12.48C66.8303 12.88 66.7036 13.32 66.6636 13.8ZM68.5636 8L70.4436 4.98H72.6636L70.3836 8H68.5636ZM79.9163 23.84V9.46H81.8763L81.9763 10.96C82.3496 10.4133 82.8363 10.0067 83.4363 9.74C84.0363 9.46 84.6896 9.32 85.3963 9.32C86.4496 9.32 87.3163 9.56 87.9963 10.04C88.6763 10.5067 89.1829 11.1533 89.5163 11.98C89.8496 12.7933 90.0163 13.7067 90.0163 14.72C90.0163 15.76 89.8429 16.6867 89.4963 17.5C89.1629 18.3133 88.6429 18.9533 87.9363 19.42C87.2429 19.8867 86.3629 20.12 85.2963 20.12C84.7896 20.12 84.3229 20.0667 83.8963 19.96C83.4829 19.8533 83.1163 19.7 82.7963 19.5C82.4896 19.2867 82.2163 19.04 81.9763 18.76V23.84H79.9163ZM85.0363 18.28C85.7563 18.28 86.3296 18.12 86.7563 17.8C87.1829 17.4667 87.4896 17.0333 87.6763 16.5C87.8629 15.9667 87.9563 15.3867 87.9563 14.76C87.9563 14.1067 87.8563 13.5133 87.6563 12.98C87.4696 12.4333 87.1563 12 86.7163 11.68C86.2896 11.3467 85.7163 11.18 84.9963 11.18C84.3429 11.18 83.7896 11.3467 83.3363 11.68C82.8829 12 82.5363 12.4333 82.2963 12.98C82.0696 13.5267 81.9563 14.12 81.9563 14.76C81.9563 15.4133 82.0629 16.0133 82.2763 16.56C82.5029 17.0933 82.8429 17.5133 83.2963 17.82C83.7629 18.1267 84.3429 18.28 85.0363 18.28ZM94.5028 20.12C94.0228 20.12 93.5561 20.06 93.1028 19.94C92.6628 19.8067 92.2695 19.6133 91.9228 19.36C91.5761 19.0933 91.2961 18.7667 91.0828 18.38C90.8828 17.98 90.7828 17.5133 90.7828 16.98C90.7828 16.34 90.9028 15.8133 91.1428 15.4C91.3961 14.9733 91.7295 14.6467 92.1428 14.42C92.5561 14.18 93.0295 14.0133 93.5628 13.92C94.1095 13.8133 94.6761 13.76 95.2628 13.76H97.8428C97.8428 13.24 97.7628 12.7867 97.6028 12.4C97.4428 12 97.1895 11.6933 96.8428 11.48C96.5095 11.2533 96.0628 11.14 95.5028 11.14C95.1695 11.14 94.8495 11.18 94.5428 11.26C94.2495 11.3267 93.9961 11.44 93.7828 11.6C93.5695 11.76 93.4228 11.9733 93.3428 12.24H91.1828C91.2628 11.7333 91.4428 11.3 91.7228 10.94C92.0028 10.5667 92.3495 10.26 92.7628 10.02C93.1761 9.78 93.6161 9.60667 94.0828 9.5C94.5628 9.38 95.0495 9.32 95.5428 9.32C97.0628 9.32 98.1561 9.76667 98.8228 10.66C99.5028 11.54 99.8428 12.7533 99.8428 14.3V20H98.0628L97.9828 18.66C97.6761 19.0733 97.3095 19.3867 96.8828 19.6C96.4695 19.8133 96.0561 19.9533 95.6428 20.02C95.2295 20.0867 94.8495 20.12 94.5028 20.12ZM94.8228 18.38C95.4228 18.38 95.9495 18.28 96.4028 18.08C96.8561 17.8667 97.2095 17.5667 97.4628 17.18C97.7161 16.78 97.8428 16.3133 97.8428 15.78V15.34H95.9628C95.5761 15.34 95.1961 15.3533 94.8228 15.38C94.4628 15.3933 94.1295 15.4467 93.8228 15.54C93.5295 15.62 93.2895 15.76 93.1028 15.96C92.9295 16.16 92.8428 16.4467 92.8428 16.82C92.8428 17.18 92.9361 17.4733 93.1228 17.7C93.3095 17.9267 93.5561 18.1 93.8628 18.22C94.1695 18.3267 94.4895 18.38 94.8228 18.38ZM101.315 20V9.46H103.255L103.355 10.98C103.621 10.5667 103.928 10.24 104.275 10C104.621 9.76 105.001 9.58667 105.415 9.48C105.828 9.37333 106.261 9.32 106.715 9.32C106.835 9.32 106.948 9.32 107.055 9.32C107.161 9.32 107.261 9.32 107.355 9.32V11.3H106.715C105.955 11.3 105.321 11.4533 104.815 11.76C104.321 12.0667 103.955 12.4933 103.715 13.04C103.488 13.5867 103.375 14.2133 103.375 14.92V20H101.315Z" fill="#010159"/>
<path d="M188.427 12.2933C188.427 11.2933 188.781 10.506 189.509 9.91017C190.217 9.33566 191.237 9.03777 192.548 9.03777C193.548 9.03777 194.38 9.22927 195.046 9.56972C195.712 9.91017 196.253 10.3783 196.691 10.9741L195.171 12.4635C194.921 12.0805 194.547 11.7826 194.089 11.5273C193.631 11.272 193.069 11.1443 192.424 11.1443C191.903 11.1443 191.487 11.2507 191.175 11.4209C190.862 11.6124 190.717 11.8678 190.717 12.1869C190.717 12.5912 190.904 12.8678 191.32 13.0168C191.737 13.187 192.34 13.3572 193.173 13.5275C193.61 13.6338 194.047 13.7615 194.463 13.8892C194.88 14.0168 195.275 14.2084 195.608 14.4424C195.941 14.6977 196.191 14.9956 196.399 15.3786C196.607 15.7617 196.711 16.2298 196.711 16.8043C196.711 17.4001 196.607 17.8895 196.399 18.315C196.191 18.7406 195.9 19.1023 195.525 19.3789C195.15 19.6555 194.713 19.8683 194.193 19.996C193.672 20.1237 193.11 20.1875 192.486 20.1875C191.487 20.1875 190.571 20.0173 189.759 19.6768C188.927 19.3364 188.302 18.8044 187.865 18.0384L189.405 16.5277C189.718 17.0809 190.155 17.4852 190.738 17.7405C191.32 17.9959 191.945 18.1022 192.632 18.1022C193.152 18.1022 193.589 18.0171 193.922 17.8469C194.255 17.6767 194.422 17.3788 194.422 16.9532C194.422 16.5489 194.234 16.2723 193.86 16.1021C193.485 15.9319 192.902 15.7617 192.111 15.5914C191.695 15.5063 191.279 15.3999 190.842 15.2723C190.404 15.1446 190.009 14.9531 189.655 14.6977C189.28 14.4637 188.989 14.1445 188.76 13.7615C188.531 13.3785 188.427 12.8891 188.427 12.2933Z" fill="#010159"/>
<path d="M184.139 6.67964C184.139 6.2328 184.284 5.84979 184.596 5.53062C184.888 5.23273 185.263 5.0625 185.72 5.0625C186.158 5.0625 186.532 5.23273 186.844 5.53062C187.136 5.84979 187.302 6.2328 187.302 6.67964C187.302 7.14775 187.136 7.53076 186.844 7.82865C186.532 8.14782 186.158 8.29677 185.72 8.29677C185.263 8.29677 184.888 8.14782 184.596 7.82865C184.284 7.53076 184.139 7.14775 184.139 6.67964ZM186.844 9.29335V19.9324H184.596V9.29335H186.844Z" fill="#010159"/>
<path d="M180.582 9.54845C180.082 9.88889 179.687 10.3783 179.375 10.9741V9.29311H177.21V19.9322H179.458V15.0595C179.458 13.9317 179.666 13.0593 180.103 12.421C180.519 11.7826 181.269 11.4635 182.309 11.4635C182.518 11.4635 182.705 11.4848 182.892 11.506L183.454 9.16544C183.121 9.08033 182.767 9.03777 182.434 9.03777C181.685 9.03777 181.081 9.208 180.582 9.54845Z" fill="#010159"/>
<path d="M173.759 19.932H175.879V17.8042H174.276C173.86 17.8042 173.568 17.7191 173.402 17.5276C173.235 17.3361 173.152 17.0594 173.152 16.6764V11.2505H175.899V9.29293H173.152V6.44166H170.904V9.29293H168.927V11.2505H170.904V16.8254C170.904 18.0169 171.154 18.8468 171.653 19.3149C172.153 19.8043 172.801 19.932 173.759 19.932Z" fill="#010159"/>
<path d="M161.049 10.7613C161.424 10.2081 161.923 9.78251 162.506 9.48461C163.089 9.18672 163.734 9.03777 164.463 9.03777C165.087 9.03777 165.649 9.14416 166.128 9.35694C166.607 9.56972 167.002 9.8889 167.314 10.2719C167.627 10.6549 167.856 11.123 168.022 11.6763C168.168 12.2295 168.251 12.8253 168.251 13.5062V19.9322H165.961V13.8041C165.961 12.9317 165.753 12.272 165.358 11.8465C164.962 11.4209 164.442 11.2081 163.776 11.2081C163.276 11.2081 162.839 11.3145 162.506 11.4848C162.173 11.6763 161.903 11.9316 161.694 12.2508C161.486 12.5912 161.32 12.9742 161.237 13.4211C161.153 13.8892 161.112 14.3786 161.112 14.9105V19.9322H158.864V9.29311H161.049V10.7613Z" fill="#010159"/>
<path d="M147.357 14.6552C147.357 13.8892 147.461 13.1444 147.711 12.4635C147.96 11.7826 148.293 11.1869 148.751 10.6762C149.209 10.1655 149.75 9.78251 150.396 9.48461C151.041 9.18672 151.769 9.03777 152.581 9.03777C153.372 9.03777 154.101 9.18672 154.725 9.46333C155.35 9.73995 155.891 10.123 156.328 10.6124C156.744 11.123 157.077 11.7188 157.306 12.3997C157.514 13.0806 157.639 13.8466 157.639 14.6552V15.3148H149.646V15.3361C149.688 15.8042 149.813 16.1872 150 16.5277C150.187 16.8681 150.416 17.166 150.708 17.3788C150.999 17.5916 151.311 17.7618 151.665 17.8682C152.019 17.9959 152.394 18.0384 152.768 18.0384C153.455 18.0384 154.059 17.9107 154.579 17.6341C155.079 17.3788 155.516 17.0383 155.891 16.6553L156.952 18.5065C156.515 18.9321 155.953 19.3364 155.287 19.6768C154.6 20.0173 153.768 20.1875 152.789 20.1875C151.957 20.1875 151.187 20.0598 150.52 19.7832C149.854 19.5279 149.272 19.1449 148.814 18.6555C148.356 18.1661 147.981 17.5916 147.731 16.9107C147.482 16.2298 147.357 15.485 147.357 14.6552ZM155.183 13.57C155.1 12.8466 154.85 12.2508 154.413 11.7826C153.976 11.3145 153.351 11.0805 152.54 11.0805C151.707 11.0805 151.041 11.3145 150.583 11.7614C150.104 12.2082 149.792 12.804 149.667 13.57H155.183Z" fill="#010159"/>
<path d="M137.75 14.6339C137.75 13.8253 137.875 13.0593 138.145 12.3784C138.416 11.6975 138.791 11.123 139.29 10.6124C139.769 10.123 140.352 9.73995 141.018 9.46333C141.684 9.18672 142.433 9.03777 143.266 9.03777C144.078 9.03777 144.806 9.18672 145.451 9.46333C146.076 9.73995 146.638 10.123 147.117 10.5911L145.764 12.3997C145.431 12.0805 145.077 11.8039 144.66 11.5911C144.244 11.3784 143.745 11.272 143.203 11.272C142.746 11.272 142.329 11.3571 141.955 11.506C141.559 11.6763 141.226 11.889 140.955 12.1869C140.664 12.4848 140.456 12.8253 140.289 13.2296C140.123 13.6551 140.06 14.102 140.06 14.6126C140.06 15.1233 140.123 15.5914 140.289 15.9957C140.456 16.4213 140.664 16.7617 140.955 17.0596C141.226 17.3575 141.559 17.5703 141.934 17.7192C142.308 17.8895 142.725 17.9533 143.183 17.9533C143.765 17.9533 144.265 17.8469 144.702 17.6128C145.139 17.4001 145.535 17.1235 145.868 16.783L147.158 18.6129C146.7 19.081 146.159 19.4428 145.493 19.7407C144.827 20.0386 144.057 20.1875 143.183 20.1875C142.35 20.1875 141.622 20.0598 140.955 19.7832C140.289 19.5279 139.707 19.1449 139.249 18.6555C138.77 18.1661 138.395 17.5703 138.145 16.8894C137.875 16.2085 137.75 15.4638 137.75 14.6339Z" fill="#010159"/>
<path d="M129.476 13.1613C131.424 13.1872 133.237 12.5928 134.725 11.5621C133.628 6.71701 129.33 3.0701 124.145 3.00099C122.908 2.9845 121.714 3.17359 120.599 3.53591C120.589 3.69703 120.581 3.86001 120.579 4.02397C120.513 9.00483 124.495 13.0958 129.475 13.1622L129.476 13.1613Z" fill="#44CBAB"/>
<path d="M121.216 13.9626C121.262 10.5075 119.359 7.48107 116.526 5.9282C114.394 7.90414 113.043 10.7159 113.001 13.8531C112.959 16.9903 114.235 19.8371 116.314 21.8691C119.186 20.3932 121.17 17.4177 121.216 13.9626Z" fill="#D58CE7"/>
<path d="M120.315 23.8813C120.313 24.0453 120.315 24.2075 120.322 24.3698C121.427 24.7617 122.615 24.9825 123.853 24.999C129.038 25.0681 133.431 21.537 134.657 16.7229C133.196 15.652 131.401 15.0104 129.452 14.9844C124.473 14.9181 120.382 18.9014 120.316 23.8823L120.315 23.8813Z" fill="#5C99FF"/>
</g>
<defs>
<clipPath id="clip0_4531_7676">
<rect width="197" height="26" fill="white"/>
</clipPath>
</defs>
</svg>
