<svg width="153" height="32" viewBox="0 0 153 32" fill="none" xmlns="http://www.w3.org/2000/svg">
<path d="M151.153 16.7364L145.643 17.3554C144.492 17.4792 143.675 17.8196 143.191 18.3767C142.706 18.9338 142.464 19.5528 142.464 20.2647C142.464 21.1622 142.736 21.8741 143.312 22.4002C143.887 22.9264 144.735 23.174 145.855 23.174C146.703 23.174 147.429 23.0502 148.095 22.7407C148.761 22.4312 149.306 22.0598 149.76 21.5646C150.215 21.0694 150.548 20.5123 150.79 19.8933C151.032 19.2743 151.153 18.6553 151.153 18.0053V16.7364ZM141.071 12.4962C141.192 12.001 141.404 11.5058 141.707 11.0416C141.98 10.6083 142.373 10.2059 142.858 9.86546C143.342 9.52501 143.917 9.24646 144.614 9.06076C145.28 8.87506 146.097 8.78221 147.066 8.78221C149.064 8.78221 150.578 9.27741 151.547 10.2059C152.516 11.1654 153 12.5891 153 14.477V24.6286H151.153V21.317C150.669 22.4931 149.942 23.3906 148.973 24.0096C148.004 24.6286 146.884 24.9381 145.613 24.9381C144.765 24.9381 144.038 24.8453 143.403 24.5977C142.767 24.3501 142.252 24.0406 141.828 23.6073C141.404 23.2049 141.071 22.7097 140.859 22.1217C140.617 21.5646 140.526 20.9456 140.526 20.2647C140.526 18.841 140.98 17.7268 141.889 16.953C142.797 16.2102 143.978 15.746 145.37 15.5912L150.396 15.096C150.881 15.0341 151.153 14.8175 151.153 14.4461V13.889C151.153 12.8367 150.82 12.032 150.215 11.413C149.579 10.794 148.549 10.4845 147.157 10.4845C144.583 10.4845 143.1 11.4749 142.706 13.3938L141.071 12.4962Z" fill="#010159"/>
<path d="M125.788 16.9221C125.788 15.746 125.97 14.6627 126.333 13.6723C126.697 12.6819 127.242 11.8463 127.938 11.1035C128.634 10.3607 129.482 9.80356 130.451 9.40121C131.42 8.99886 132.51 8.78221 133.721 8.78221C134.811 8.78221 135.779 8.96791 136.657 9.30836C137.535 9.67976 138.323 10.175 138.989 10.8249L137.808 12.3105C137.202 11.7844 136.567 11.382 135.87 11.0725C135.174 10.763 134.417 10.6083 133.63 10.6083C132.752 10.6083 131.965 10.763 131.238 11.0725C130.511 11.382 129.876 11.7844 129.361 12.3105C128.816 12.8676 128.422 13.5176 128.12 14.2913C127.817 15.096 127.696 15.9626 127.696 16.8911C127.696 17.8506 127.817 18.7172 128.12 19.4909C128.422 20.2647 128.816 20.9146 129.361 21.4717C129.876 22.0288 130.511 22.4312 131.238 22.7407C131.965 23.0502 132.752 23.174 133.6 23.174C134.447 23.174 135.235 23.0192 135.961 22.7097C136.688 22.4002 137.354 21.9669 137.959 21.4098L139.08 22.8954C138.414 23.5144 137.657 24.0406 136.748 24.412C135.84 24.8143 134.78 25 133.63 25C132.419 25 131.359 24.8143 130.39 24.412C129.422 24.0096 128.574 23.4525 127.908 22.7407C127.211 22.0288 126.697 21.1622 126.333 20.1718C125.97 19.1814 125.788 18.0982 125.788 16.9221Z" fill="#010159"/>
<path d="M124.161 22.0434C124.514 22.0434 124.823 22.1787 125.073 22.4194C125.309 22.6751 125.441 22.991 125.441 23.352C125.441 23.728 125.309 24.0439 125.073 24.2846C124.823 24.5252 124.514 24.6456 124.161 24.6456C123.793 24.6456 123.484 24.5252 123.249 24.2846C123.014 24.0439 122.896 23.728 122.896 23.352C122.896 22.991 123.014 22.6751 123.249 22.4194C123.484 22.1787 123.793 22.0434 124.161 22.0434Z" fill="#010159"/>
<path d="M109.712 13.5176C109.712 12.0629 110.227 10.9178 111.286 10.0512C112.316 9.21551 113.799 8.78221 115.707 8.78221C117.16 8.78221 118.371 9.06076 119.34 9.55596C120.309 10.0512 121.096 10.7321 121.732 11.5987L119.522 13.7652C119.158 13.2081 118.613 12.7748 117.947 12.4034C117.281 12.032 116.464 11.8463 115.525 11.8463C114.768 11.8463 114.163 12.001 113.709 12.2486C113.254 12.5272 113.042 12.8986 113.042 13.3628C113.042 13.9509 113.315 14.3532 113.92 14.5699C114.526 14.8175 115.404 15.0651 116.615 15.3127C117.251 15.4674 117.887 15.6531 118.492 15.8388C119.098 16.0245 119.673 16.3031 120.157 16.6435C120.642 17.0149 121.005 17.4482 121.308 18.0053C121.611 18.5624 121.762 19.2433 121.762 20.079C121.762 20.9456 121.611 21.6574 121.308 22.2764C121.005 22.8954 120.581 23.4216 120.036 23.8239C119.491 24.2263 118.855 24.5357 118.099 24.7214C117.342 24.9071 116.524 25 115.616 25C114.163 25 112.831 24.7524 111.65 24.2572C110.439 23.762 109.53 22.9883 108.895 21.8741L111.135 19.6766C111.589 20.4813 112.225 21.0694 113.073 21.4408C113.92 21.8122 114.829 21.9669 115.828 21.9669C116.585 21.9669 117.221 21.8431 117.705 21.5955C118.189 21.3479 118.432 20.9146 118.432 20.2956C118.432 19.7076 118.159 19.3052 117.614 19.0576C117.069 18.81 116.221 18.5624 115.071 18.3148C114.465 18.191 113.86 18.0363 113.224 17.8506C112.588 17.6649 112.013 17.3863 111.498 17.0149C110.953 16.6745 110.53 16.2102 110.197 15.6531C109.864 15.096 109.712 14.3842 109.712 13.5176Z" fill="#010159"/>
<path d="M103.474 5.3522C103.474 4.70225 103.686 4.14515 104.14 3.6809C104.564 3.2476 105.109 3 105.775 3C106.411 3 106.956 3.2476 107.41 3.6809C107.834 4.14515 108.076 4.70225 108.076 5.3522C108.076 6.0331 107.834 6.5902 107.41 7.0235C106.956 7.48775 106.411 7.7044 105.775 7.7044C105.109 7.7044 104.564 7.48775 104.14 7.0235C103.686 6.5902 103.474 6.0331 103.474 5.3522ZM107.41 9.15397V24.629H104.14V9.15397H107.41Z" fill="#010159"/>
<path d="M98.3007 9.52501C97.5741 10.0202 96.9989 10.7321 96.5447 11.5987V9.15361H93.396V24.6286H96.6658V17.5411C96.6658 15.9007 96.9686 14.6318 97.6044 13.7033C98.2099 12.7748 99.2999 12.3105 100.814 12.3105C101.116 12.3105 101.389 12.3415 101.661 12.3724L102.479 8.96791C101.994 8.84411 101.48 8.78221 100.995 8.78221C99.9054 8.78221 99.0274 9.02981 98.3007 9.52501Z" fill="#010159"/>
<path d="M88.3764 24.6284H91.4599V21.5333H89.1286C88.5231 21.5333 88.0992 21.4095 87.857 21.131C87.6148 20.8524 87.4937 20.4501 87.4937 19.893V12.0007H91.4901V9.15335H87.4937V5.00605H84.2239V9.15335H81.3477V12.0007H84.2239V20.1096C84.2239 21.8428 84.5872 23.0499 85.3138 23.7308C86.0405 24.4426 86.9837 24.6284 88.3764 24.6284Z" fill="#010159"/>
<path d="M69.8898 11.2892C70.4347 10.4845 71.1613 9.86546 72.0091 9.43216C72.8568 8.99886 73.7953 8.78221 74.855 8.78221C75.7633 8.78221 76.5807 8.93696 77.2771 9.24646C77.9734 9.55596 78.5487 10.0202 79.0028 10.5773C79.457 11.1344 79.79 11.8153 80.0322 12.62C80.2441 13.4247 80.3652 14.2913 80.3652 15.2817V24.6286H77.0349V15.715C77.0349 14.4461 76.7321 13.4866 76.1569 12.8676C75.5816 12.2486 74.8247 11.9391 73.8559 11.9391C73.1293 11.9391 72.4935 12.0939 72.0091 12.3415C71.5247 12.62 71.1311 12.9914 70.8283 13.4557C70.5255 13.9509 70.2833 14.508 70.1622 15.1579C70.0411 15.8388 69.9806 16.5507 69.9806 17.3244V24.6286H66.7108V9.15361H69.8898V11.2892Z" fill="#010159"/>
<path d="M49.9733 16.953C49.9733 15.8388 50.1247 14.7556 50.488 13.7652C50.8513 12.7748 51.3357 11.9082 52.0018 11.1654C52.6679 10.4226 53.4551 9.86546 54.3936 9.43216C55.3322 8.99886 56.3918 8.78221 57.5726 8.78221C58.7231 8.78221 59.7827 8.99886 60.691 9.40121C61.5993 9.80356 62.3865 10.3607 63.0223 11.0725C63.6278 11.8153 64.1122 12.6819 64.4452 13.6723C64.748 14.6627 64.9296 15.7769 64.9296 16.953V17.9125H53.3037V17.9434C53.3642 18.6243 53.5459 19.1814 53.8184 19.6766C54.0909 20.1718 54.4239 20.6051 54.8477 20.9146C55.2716 21.2241 55.7258 21.4717 56.2404 21.6265C56.7551 21.8122 57.3001 21.8741 57.8451 21.8741C58.8442 21.8741 59.7222 21.6884 60.4791 21.286C61.2057 20.9146 61.8415 20.4194 62.3865 19.8623L63.9305 22.555C63.2947 23.174 62.4773 23.762 61.5085 24.2572C60.5094 24.7524 59.2983 25 57.8753 25C56.6643 25 55.5441 24.8143 54.5753 24.4119C53.6064 24.0406 52.7587 23.4835 52.0926 22.7716C51.4266 22.0598 50.8816 21.2241 50.5183 20.2337C50.155 19.2433 49.9733 18.1601 49.9733 16.953ZM61.3571 15.3746C61.236 14.3223 60.8727 13.4557 60.2369 12.7748C59.6011 12.0939 58.6928 11.7534 57.512 11.7534C56.301 11.7534 55.3322 12.0939 54.6661 12.7438C53.9697 13.3938 53.5156 14.2604 53.334 15.3746H61.3571Z" fill="#010159"/>
<path d="M36 16.9221C36 15.746 36.1817 14.6318 36.5752 13.6414C36.9688 12.651 37.5138 11.8153 38.2404 11.0725C38.9368 10.3607 39.7845 9.80356 40.7533 9.40121C41.7222 8.99886 42.8121 8.78221 44.0231 8.78221C45.2039 8.78221 46.2636 8.99886 47.2021 9.40121C48.1104 9.80356 48.9278 10.3607 49.6242 11.0416L47.6562 13.6723C47.1718 13.2081 46.6571 12.8057 46.0516 12.4962C45.4461 12.1867 44.7195 12.032 43.9323 12.032C43.2662 12.032 42.6607 12.1558 42.1157 12.3724C41.5405 12.62 41.0561 12.9295 40.6625 13.3628C40.2386 13.7961 39.9359 14.2913 39.6937 14.8794C39.4515 15.4984 39.3606 16.1483 39.3606 16.8911C39.3606 17.6339 39.4515 18.3148 39.6937 18.9029C39.9359 19.5219 40.2386 20.0171 40.6625 20.4504C41.0561 20.8837 41.5405 21.1932 42.0855 21.4098C42.6304 21.6574 43.236 21.7503 43.902 21.7503C44.7498 21.7503 45.4764 21.5955 46.1122 21.2551C46.748 20.9456 47.3232 20.5432 47.8076 20.048L49.6847 22.7097C49.0187 23.3906 48.2315 23.9168 47.2627 24.3501C46.2938 24.7834 45.1736 25 43.902 25C42.691 25 41.6313 24.8143 40.6625 24.412C39.6937 24.0406 38.8459 23.4835 38.1799 22.7716C37.4835 22.0598 36.9386 21.1932 36.5752 20.2028C36.1817 19.2124 36 18.1291 36 16.9221Z" fill="#010159"/>
<path d="M23.9652 14.78C26.7987 14.8178 29.435 13.9531 31.6 12.454C30.0046 5.40657 23.7527 0.101964 16.2112 0.00144708C14.4109 -0.0225478 12.6756 0.252492 11.0534 0.779503C11.0384 1.01386 11.0273 1.25092 11.0241 1.48942C10.9276 8.7343 16.7204 14.6848 23.9639 14.7813L23.9652 14.78Z" fill="#44CBAB"/>
<path d="M11.9502 15.9456C12.0172 10.92 9.24975 6.51792 5.12883 4.25919C2.02729 7.13329 0.0622458 11.2232 0.00144969 15.7863C-0.0593464 20.3495 1.79604 24.4903 4.81991 27.446C8.9982 25.2992 11.8833 20.9712 11.9502 15.9456Z" fill="#D58CE7"/>
<path d="M10.6403 30.3729C10.6371 30.6114 10.6406 30.8473 10.6507 31.0833C12.2582 31.6534 13.9856 31.9746 15.7858 31.9986C23.3273 32.0991 29.7184 26.963 31.501 19.9605C29.3766 18.403 26.7644 17.4697 23.9308 17.4319C16.6874 17.3353 10.7381 23.1293 10.6416 30.3742L10.6403 30.3729Z" fill="#5C99FF"/>
</svg>
